<mxfile host="65bd71144e">
    <diagram id="cKBd_tNWkHlATPWrMS_m" name="Purpose">
        <mxGraphModel dx="945" dy="696" grid="1" gridSize="10" guides="1" tooltips="1" connect="1" arrows="1" fold="1" page="1" pageScale="1" pageWidth="827" pageHeight="1169" math="0" shadow="0">
            <root>
                <mxCell id="0"/>
                <mxCell id="1" parent="0"/>
                <mxCell id="2" value="" style="shape=actor;whiteSpace=wrap;html=1;" parent="1" vertex="1">
                    <mxGeometry x="330" y="340" width="60" height="90" as="geometry"/>
                </mxCell>
                <mxCell id="3" value="User" style="ellipse;shape=cloud;whiteSpace=wrap;html=1;" parent="1" vertex="1">
                    <mxGeometry x="161" y="340" width="120" height="80" as="geometry"/>
                </mxCell>
                <mxCell id="4" value="Comments" style="ellipse;shape=cloud;whiteSpace=wrap;html=1;" parent="1" vertex="1">
                    <mxGeometry x="200" y="240" width="160" height="80" as="geometry"/>
                </mxCell>
                <mxCell id="5" value="Frame" style="ellipse;shape=cloud;whiteSpace=wrap;html=1;" parent="1" vertex="1">
                    <mxGeometry x="440" y="330" width="160" height="80" as="geometry"/>
                </mxCell>
                <mxCell id="6" value="Photo" style="ellipse;shape=cloud;whiteSpace=wrap;html=1;" parent="1" vertex="1">
                    <mxGeometry x="360" y="240" width="160" height="80" as="geometry"/>
                </mxCell>
            </root>
        </mxGraphModel>
    </diagram>
    <diagram id="15UR6XnbTtkx_rhGs56_" name="ER">
        <mxGraphModel dx="945" dy="696" grid="1" gridSize="10" guides="1" tooltips="1" connect="1" arrows="1" fold="1" page="1" pageScale="1" pageWidth="827" pageHeight="1169" math="0" shadow="0">
            <root>
                <mxCell id="2u_GgeGQWRgM_z2mmB_E-0"/>
                <mxCell id="2u_GgeGQWRgM_z2mmB_E-1" parent="2u_GgeGQWRgM_z2mmB_E-0"/>
                <mxCell id="EP0e88sNxeRvX9mwzavs-3" value="" style="edgeStyle=none;html=1;startArrow=ERmany;startFill=0;endArrow=none;endFill=0;entryX=1;entryY=0.5;entryDx=0;entryDy=0;" parent="2u_GgeGQWRgM_z2mmB_E-1" source="ppNSqpG5gArmucL4nR4V-0" target="EP0e88sNxeRvX9mwzavs-1" edge="1">
                    <mxGeometry relative="1" as="geometry">
                        <mxPoint x="630" y="230" as="targetPoint"/>
                    </mxGeometry>
                </mxCell>
                <mxCell id="ppNSqpG5gArmucL4nR4V-0" value="Comment" style="rounded=0;whiteSpace=wrap;html=1;" parent="2u_GgeGQWRgM_z2mmB_E-1" vertex="1">
                    <mxGeometry x="40" y="200" width="120" height="60" as="geometry"/>
                </mxCell>
                <mxCell id="ppNSqpG5gArmucL4nR4V-1" value="Photo" style="rounded=0;whiteSpace=wrap;html=1;" parent="2u_GgeGQWRgM_z2mmB_E-1" vertex="1">
                    <mxGeometry x="660" y="200" width="120" height="60" as="geometry"/>
                </mxCell>
                <mxCell id="ppNSqpG5gArmucL4nR4V-9" value="" style="edgeStyle=none;html=1;startArrow=none;startFill=0;endArrow=none;endFill=0;" parent="2u_GgeGQWRgM_z2mmB_E-1" source="ppNSqpG5gArmucL4nR4V-5" target="ppNSqpG5gArmucL4nR4V-0" edge="1">
                    <mxGeometry relative="1" as="geometry"/>
                </mxCell>
                <mxCell id="ppNSqpG5gArmucL4nR4V-5" value="text" style="ellipse;whiteSpace=wrap;html=1;" parent="2u_GgeGQWRgM_z2mmB_E-1" vertex="1">
                    <mxGeometry x="10" y="100" width="90" height="50" as="geometry"/>
                </mxCell>
                <mxCell id="ppNSqpG5gArmucL4nR4V-10" value="" style="edgeStyle=none;html=1;startArrow=none;startFill=0;endArrow=none;endFill=0;" parent="2u_GgeGQWRgM_z2mmB_E-1" source="ppNSqpG5gArmucL4nR4V-6" target="ppNSqpG5gArmucL4nR4V-0" edge="1">
                    <mxGeometry relative="1" as="geometry"/>
                </mxCell>
                <mxCell id="ppNSqpG5gArmucL4nR4V-6" value="date" style="ellipse;whiteSpace=wrap;html=1;" parent="2u_GgeGQWRgM_z2mmB_E-1" vertex="1">
                    <mxGeometry x="107" y="100" width="90" height="50" as="geometry"/>
                </mxCell>
                <mxCell id="ppNSqpG5gArmucL4nR4V-22" value="Nickname" style="rounded=0;whiteSpace=wrap;html=1;" parent="2u_GgeGQWRgM_z2mmB_E-1" vertex="1">
                    <mxGeometry x="348" y="400" width="120" height="60" as="geometry"/>
                </mxCell>
                <mxCell id="EP0e88sNxeRvX9mwzavs-2" value="" style="edgeStyle=none;html=1;startArrow=ERone;startFill=0;endArrow=none;endFill=0;" parent="2u_GgeGQWRgM_z2mmB_E-1" source="V5lSEYwKekA0PapO-hXK-0" target="EP0e88sNxeRvX9mwzavs-1" edge="1">
                    <mxGeometry relative="1" as="geometry"/>
                </mxCell>
                <mxCell id="V5lSEYwKekA0PapO-hXK-0" value="User" style="rounded=0;whiteSpace=wrap;html=1;" parent="2u_GgeGQWRgM_z2mmB_E-1" vertex="1">
                    <mxGeometry x="348" y="200" width="120" height="60" as="geometry"/>
                </mxCell>
                <mxCell id="V5lSEYwKekA0PapO-hXK-7" value="" style="edgeStyle=none;html=1;startArrow=none;startFill=0;endArrow=none;endFill=0;" parent="2u_GgeGQWRgM_z2mmB_E-1" source="V5lSEYwKekA0PapO-hXK-3" target="V5lSEYwKekA0PapO-hXK-0" edge="1">
                    <mxGeometry relative="1" as="geometry"/>
                </mxCell>
                <mxCell id="V5lSEYwKekA0PapO-hXK-3" value="password" style="ellipse;whiteSpace=wrap;html=1;" parent="2u_GgeGQWRgM_z2mmB_E-1" vertex="1">
                    <mxGeometry x="310" y="100" width="90" height="50" as="geometry"/>
                </mxCell>
                <mxCell id="V5lSEYwKekA0PapO-hXK-8" value="" style="edgeStyle=none;html=1;startArrow=none;startFill=0;endArrow=none;endFill=0;" parent="2u_GgeGQWRgM_z2mmB_E-1" source="V5lSEYwKekA0PapO-hXK-4" target="V5lSEYwKekA0PapO-hXK-0" edge="1">
                    <mxGeometry relative="1" as="geometry"/>
                </mxCell>
                <mxCell id="V5lSEYwKekA0PapO-hXK-4" value="real name" style="ellipse;whiteSpace=wrap;html=1;" parent="2u_GgeGQWRgM_z2mmB_E-1" vertex="1">
                    <mxGeometry x="363" y="30" width="90" height="50" as="geometry"/>
                </mxCell>
                <mxCell id="EP0e88sNxeRvX9mwzavs-1" value="write" style="rhombus;whiteSpace=wrap;html=1;rounded=0;" parent="2u_GgeGQWRgM_z2mmB_E-1" vertex="1">
                    <mxGeometry x="200" y="190" width="98" height="80" as="geometry"/>
                </mxCell>
                <mxCell id="EP0e88sNxeRvX9mwzavs-6" style="edgeStyle=none;html=1;startArrow=none;startFill=0;endArrow=ERone;endFill=0;" parent="2u_GgeGQWRgM_z2mmB_E-1" source="EP0e88sNxeRvX9mwzavs-4" target="V5lSEYwKekA0PapO-hXK-0" edge="1">
                    <mxGeometry relative="1" as="geometry"/>
                </mxCell>
                <mxCell id="EP0e88sNxeRvX9mwzavs-7" style="edgeStyle=none;html=1;startArrow=none;startFill=0;endArrow=ERone;endFill=0;" parent="2u_GgeGQWRgM_z2mmB_E-1" source="EP0e88sNxeRvX9mwzavs-4" target="ppNSqpG5gArmucL4nR4V-22" edge="1">
                    <mxGeometry relative="1" as="geometry"/>
                </mxCell>
                <mxCell id="EP0e88sNxeRvX9mwzavs-4" value="has" style="rhombus;whiteSpace=wrap;html=1;" parent="2u_GgeGQWRgM_z2mmB_E-1" vertex="1">
                    <mxGeometry x="368" y="290" width="80" height="80" as="geometry"/>
                </mxCell>
                <mxCell id="EP0e88sNxeRvX9mwzavs-12" value="" style="edgeStyle=none;html=1;startArrow=none;startFill=0;endArrow=ERmany;endFill=0;" parent="2u_GgeGQWRgM_z2mmB_E-1" source="EP0e88sNxeRvX9mwzavs-8" target="ppNSqpG5gArmucL4nR4V-1" edge="1">
                    <mxGeometry relative="1" as="geometry"/>
                </mxCell>
                <mxCell id="Ciq9sxlkXLAkDAncEnbV-3" value="" style="edgeStyle=none;html=1;startArrow=none;startFill=0;endArrow=ERmany;endFill=0;" edge="1" parent="2u_GgeGQWRgM_z2mmB_E-1" source="EP0e88sNxeRvX9mwzavs-8" target="V5lSEYwKekA0PapO-hXK-0">
                    <mxGeometry relative="1" as="geometry"/>
                </mxCell>
                <mxCell id="EP0e88sNxeRvX9mwzavs-8" value="Frame" style="rhombus;whiteSpace=wrap;html=1;" parent="2u_GgeGQWRgM_z2mmB_E-1" vertex="1">
                    <mxGeometry x="520" y="190" width="80" height="80" as="geometry"/>
                </mxCell>
                <mxCell id="_6o-B0m6dqda3ddUoEW7-4" value="" style="edgeStyle=none;html=1;startArrow=none;startFill=0;endArrow=none;endFill=0;" parent="2u_GgeGQWRgM_z2mmB_E-1" source="_6o-B0m6dqda3ddUoEW7-0" target="ppNSqpG5gArmucL4nR4V-22" edge="1">
                    <mxGeometry relative="1" as="geometry"/>
                </mxCell>
                <mxCell id="_6o-B0m6dqda3ddUoEW7-0" value="name" style="ellipse;whiteSpace=wrap;html=1;" parent="2u_GgeGQWRgM_z2mmB_E-1" vertex="1">
                    <mxGeometry x="363" y="490" width="90" height="50" as="geometry"/>
                </mxCell>
                <mxCell id="Ciq9sxlkXLAkDAncEnbV-1" value="" style="edgeStyle=none;html=1;endArrow=none;endFill=0;" edge="1" parent="2u_GgeGQWRgM_z2mmB_E-1" source="Ciq9sxlkXLAkDAncEnbV-0" target="V5lSEYwKekA0PapO-hXK-0">
                    <mxGeometry relative="1" as="geometry"/>
                </mxCell>
                <mxCell id="Ciq9sxlkXLAkDAncEnbV-0" value="email" style="ellipse;whiteSpace=wrap;html=1;" vertex="1" parent="2u_GgeGQWRgM_z2mmB_E-1">
                    <mxGeometry x="420" y="100" width="90" height="50" as="geometry"/>
                </mxCell>
                <mxCell id="Ciq9sxlkXLAkDAncEnbV-5" value="" style="edgeStyle=none;html=1;startArrow=none;startFill=0;endArrow=none;endFill=0;" edge="1" source="Ciq9sxlkXLAkDAncEnbV-6" target="ppNSqpG5gArmucL4nR4V-1" parent="2u_GgeGQWRgM_z2mmB_E-1">
                    <mxGeometry relative="1" as="geometry">
                        <mxPoint x="708.2608695652175" y="470" as="targetPoint"/>
                    </mxGeometry>
                </mxCell>
                <mxCell id="Ciq9sxlkXLAkDAncEnbV-6" value="filename" style="ellipse;whiteSpace=wrap;html=1;" vertex="1" parent="2u_GgeGQWRgM_z2mmB_E-1">
                    <mxGeometry x="630" y="300" width="90" height="50" as="geometry"/>
                </mxCell>
                <mxCell id="Ciq9sxlkXLAkDAncEnbV-7" value="" style="edgeStyle=none;html=1;startArrow=none;startFill=0;endArrow=none;endFill=0;" edge="1" source="Ciq9sxlkXLAkDAncEnbV-8" target="ppNSqpG5gArmucL4nR4V-1" parent="2u_GgeGQWRgM_z2mmB_E-1">
                    <mxGeometry relative="1" as="geometry">
                        <mxPoint x="734.3478260869565" y="470" as="targetPoint"/>
                    </mxGeometry>
                </mxCell>
                <mxCell id="Ciq9sxlkXLAkDAncEnbV-8" value="description" style="ellipse;whiteSpace=wrap;html=1;" vertex="1" parent="2u_GgeGQWRgM_z2mmB_E-1">
                    <mxGeometry x="730" y="300" width="90" height="50" as="geometry"/>
                </mxCell>
                <mxCell id="Ciq9sxlkXLAkDAncEnbV-12" value="" style="edgeStyle=none;html=1;startArrow=none;startFill=0;endArrow=none;endFill=0;" edge="1" parent="2u_GgeGQWRgM_z2mmB_E-1" source="Ciq9sxlkXLAkDAncEnbV-11" target="EP0e88sNxeRvX9mwzavs-8">
                    <mxGeometry relative="1" as="geometry"/>
                </mxCell>
                <mxCell id="Ciq9sxlkXLAkDAncEnbV-11" value="coordinates" style="ellipse;whiteSpace=wrap;html=1;" vertex="1" parent="2u_GgeGQWRgM_z2mmB_E-1">
                    <mxGeometry x="515" y="300" width="90" height="50" as="geometry"/>
                </mxCell>
            </root>
        </mxGraphModel>
    </diagram>
    <diagram id="g17sYoDOzrbhVf1pqz28" name="UML">
        <mxGraphModel dx="945" dy="696" grid="1" gridSize="10" guides="1" tooltips="1" connect="1" arrows="1" fold="1" page="1" pageScale="1" pageWidth="827" pageHeight="1169" math="0" shadow="0">
            <root>
                <mxCell id="H7DWUn0vDwxtsgN2xfW3-0"/>
                <mxCell id="H7DWUn0vDwxtsgN2xfW3-1" parent="H7DWUn0vDwxtsgN2xfW3-0"/>
                <mxCell id="NmcAytKLzcR5IoMg6Rbq-0" style="edgeStyle=none;html=1;entryX=0.5;entryY=1.1;entryDx=0;entryDy=0;entryPerimeter=0;startArrow=ERone;startFill=0;endArrow=ERmany;endFill=0;" parent="H7DWUn0vDwxtsgN2xfW3-1" source="D67o8UtpvSMQAMpsR08U-7" target="D67o8UtpvSMQAMpsR08U-25" edge="1">
                    <mxGeometry relative="1" as="geometry"/>
                </mxCell>
                <mxCell id="D67o8UtpvSMQAMpsR08U-7" value="Nick" style="swimlane;fontStyle=0;childLayout=stackLayout;horizontal=1;startSize=30;horizontalStack=0;resizeParent=1;resizeParentMax=0;resizeLast=0;collapsible=1;marginBottom=0;" parent="H7DWUn0vDwxtsgN2xfW3-1" vertex="1">
                    <mxGeometry x="200" y="290" width="110" height="90" as="geometry"/>
                </mxCell>
                <mxCell id="D67o8UtpvSMQAMpsR08U-8" value="+ nick_id: int" style="text;strokeColor=none;fillColor=none;align=left;verticalAlign=middle;spacingLeft=4;spacingRight=4;overflow=hidden;points=[[0,0.5],[1,0.5]];portConstraint=eastwest;rotatable=0;fontStyle=5" parent="D67o8UtpvSMQAMpsR08U-7" vertex="1">
                    <mxGeometry y="30" width="110" height="30" as="geometry"/>
                </mxCell>
                <mxCell id="D67o8UtpvSMQAMpsR08U-9" value="+ name: string" style="text;strokeColor=none;fillColor=none;align=left;verticalAlign=middle;spacingLeft=4;spacingRight=4;overflow=hidden;points=[[0,0.5],[1,0.5]];portConstraint=eastwest;rotatable=0;" parent="D67o8UtpvSMQAMpsR08U-7" vertex="1">
                    <mxGeometry y="60" width="110" height="30" as="geometry"/>
                </mxCell>
                <mxCell id="D67o8UtpvSMQAMpsR08U-12" value="Photo" style="swimlane;fontStyle=0;childLayout=stackLayout;horizontal=1;startSize=30;horizontalStack=0;resizeParent=1;resizeParentMax=0;resizeLast=0;collapsible=1;marginBottom=0;" parent="H7DWUn0vDwxtsgN2xfW3-1" vertex="1">
                    <mxGeometry x="620" y="95" width="160" height="120" as="geometry"/>
                </mxCell>
                <mxCell id="D67o8UtpvSMQAMpsR08U-13" value="+ photo_id: int" style="text;strokeColor=none;fillColor=none;align=left;verticalAlign=middle;spacingLeft=4;spacingRight=4;overflow=hidden;points=[[0,0.5],[1,0.5]];portConstraint=eastwest;rotatable=0;fontStyle=5" parent="D67o8UtpvSMQAMpsR08U-12" vertex="1">
                    <mxGeometry y="30" width="160" height="30" as="geometry"/>
                </mxCell>
                <mxCell id="D67o8UtpvSMQAMpsR08U-14" value="+ filename: string" style="text;strokeColor=none;fillColor=none;align=left;verticalAlign=middle;spacingLeft=4;spacingRight=4;overflow=hidden;points=[[0,0.5],[1,0.5]];portConstraint=eastwest;rotatable=0;" parent="D67o8UtpvSMQAMpsR08U-12" vertex="1">
                    <mxGeometry y="60" width="160" height="30" as="geometry"/>
                </mxCell>
                <mxCell id="D67o8UtpvSMQAMpsR08U-16" value="+ description: string" style="text;strokeColor=none;fillColor=none;align=left;verticalAlign=middle;spacingLeft=4;spacingRight=4;overflow=hidden;points=[[0,0.5],[1,0.5]];portConstraint=eastwest;rotatable=0;" parent="D67o8UtpvSMQAMpsR08U-12" vertex="1">
                    <mxGeometry y="90" width="160" height="30" as="geometry"/>
                </mxCell>
                <mxCell id="D67o8UtpvSMQAMpsR08U-19" value="User" style="swimlane;fontStyle=0;childLayout=stackLayout;horizontal=1;startSize=30;horizontalStack=0;resizeParent=1;resizeParentMax=0;resizeLast=0;collapsible=1;marginBottom=0;" parent="H7DWUn0vDwxtsgN2xfW3-1" vertex="1">
                    <mxGeometry x="190" y="50" width="130" height="180" as="geometry"/>
                </mxCell>
                <mxCell id="D67o8UtpvSMQAMpsR08U-20" value="+ user_id: int" style="text;strokeColor=none;fillColor=none;align=left;verticalAlign=middle;spacingLeft=4;spacingRight=4;overflow=hidden;points=[[0,0.5],[1,0.5]];portConstraint=eastwest;rotatable=0;fontStyle=5" parent="D67o8UtpvSMQAMpsR08U-19" vertex="1">
                    <mxGeometry y="30" width="130" height="30" as="geometry"/>
                </mxCell>
                <mxCell id="D67o8UtpvSMQAMpsR08U-21" value="+ password: string" style="text;strokeColor=none;fillColor=none;align=left;verticalAlign=middle;spacingLeft=4;spacingRight=4;overflow=hidden;points=[[0,0.5],[1,0.5]];portConstraint=eastwest;rotatable=0;" parent="D67o8UtpvSMQAMpsR08U-19" vertex="1">
                    <mxGeometry y="60" width="130" height="30" as="geometry"/>
                </mxCell>
                <mxCell id="D67o8UtpvSMQAMpsR08U-22" value="+ realName: string" style="text;strokeColor=none;fillColor=none;align=left;verticalAlign=middle;spacingLeft=4;spacingRight=4;overflow=hidden;points=[[0,0.5],[1,0.5]];portConstraint=eastwest;rotatable=0;" parent="D67o8UtpvSMQAMpsR08U-19" vertex="1">
                    <mxGeometry y="90" width="130" height="30" as="geometry"/>
                </mxCell>
                <mxCell id="nvd8tF9lQq2S_ZjbYzN0-0" value="+ email: string" style="text;strokeColor=none;fillColor=none;align=left;verticalAlign=middle;spacingLeft=4;spacingRight=4;overflow=hidden;points=[[0,0.5],[1,0.5]];portConstraint=eastwest;rotatable=0;" vertex="1" parent="D67o8UtpvSMQAMpsR08U-19">
                    <mxGeometry y="120" width="130" height="30" as="geometry"/>
                </mxCell>
                <mxCell id="D67o8UtpvSMQAMpsR08U-25" value="+ fk_nick_id: int" style="text;strokeColor=none;fillColor=none;align=left;verticalAlign=middle;spacingLeft=4;spacingRight=4;overflow=hidden;points=[[0,0.5],[1,0.5]];portConstraint=eastwest;rotatable=0;fontStyle=2" parent="D67o8UtpvSMQAMpsR08U-19" vertex="1">
                    <mxGeometry y="150" width="130" height="30" as="geometry"/>
                </mxCell>
                <mxCell id="dS7gG06pIL7E628DNN96-1" style="edgeStyle=orthogonalEdgeStyle;html=1;startArrow=ERmany;startFill=0;endArrow=ERone;endFill=0;exitX=1;exitY=0.5;exitDx=0;exitDy=0;entryX=0;entryY=0.5;entryDx=0;entryDy=0;" parent="H7DWUn0vDwxtsgN2xfW3-1" source="dS7gG06pIL7E628DNN96-0" target="D67o8UtpvSMQAMpsR08U-13" edge="1">
                    <mxGeometry relative="1" as="geometry"/>
                </mxCell>
                <mxCell id="dS7gG06pIL7E628DNN96-2" value="" style="edgeStyle=orthogonalEdgeStyle;html=1;startArrow=ERmany;startFill=0;endArrow=ERone;endFill=0;entryX=1;entryY=0.5;entryDx=0;entryDy=0;exitX=0;exitY=0.5;exitDx=0;exitDy=0;" parent="H7DWUn0vDwxtsgN2xfW3-1" source="-x5kEt4TQjW8k059a6kW-25" target="D67o8UtpvSMQAMpsR08U-20" edge="1">
                    <mxGeometry relative="1" as="geometry"/>
                </mxCell>
                <mxCell id="-x5kEt4TQjW8k059a6kW-21" value="Frame (UserToPhoto)" style="swimlane;fontStyle=0;childLayout=stackLayout;horizontal=1;startSize=30;horizontalStack=0;resizeParent=1;resizeParentMax=0;resizeLast=0;collapsible=1;marginBottom=0;" parent="H7DWUn0vDwxtsgN2xfW3-1" vertex="1">
                    <mxGeometry x="380" y="80" width="180" height="150" as="geometry"/>
                </mxCell>
                <mxCell id="-x5kEt4TQjW8k059a6kW-22" value="+ frame_id: int" style="text;strokeColor=none;fillColor=none;align=left;verticalAlign=middle;spacingLeft=4;spacingRight=4;overflow=hidden;points=[[0,0.5],[1,0.5]];portConstraint=eastwest;rotatable=0;fontStyle=5" parent="-x5kEt4TQjW8k059a6kW-21" vertex="1">
                    <mxGeometry y="30" width="180" height="30" as="geometry"/>
                </mxCell>
                <mxCell id="-x5kEt4TQjW8k059a6kW-23" value="+ coordinates: string" style="text;strokeColor=none;fillColor=none;align=left;verticalAlign=middle;spacingLeft=4;spacingRight=4;overflow=hidden;points=[[0,0.5],[1,0.5]];portConstraint=eastwest;rotatable=0;" parent="-x5kEt4TQjW8k059a6kW-21" vertex="1">
                    <mxGeometry y="60" width="180" height="30" as="geometry"/>
                </mxCell>
                <mxCell id="-x5kEt4TQjW8k059a6kW-25" value="+ fk_user_id: int" style="text;strokeColor=none;fillColor=none;align=left;verticalAlign=middle;spacingLeft=4;spacingRight=4;overflow=hidden;points=[[0,0.5],[1,0.5]];portConstraint=eastwest;rotatable=0;fontStyle=2" parent="-x5kEt4TQjW8k059a6kW-21" vertex="1">
                    <mxGeometry y="90" width="180" height="30" as="geometry"/>
                </mxCell>
                <mxCell id="dS7gG06pIL7E628DNN96-0" value="+ fk_photo_id: int" style="text;strokeColor=none;fillColor=none;align=left;verticalAlign=middle;spacingLeft=4;spacingRight=4;overflow=hidden;points=[[0,0.5],[1,0.5]];portConstraint=eastwest;rotatable=0;fontStyle=2" parent="-x5kEt4TQjW8k059a6kW-21" vertex="1">
                    <mxGeometry y="120" width="180" height="30" as="geometry"/>
                </mxCell>
                <mxCell id="7Ev8QGWdEeKFgQ5SGrht-0" value="Comment" style="swimlane;fontStyle=0;childLayout=stackLayout;horizontal=1;startSize=30;horizontalStack=0;resizeParent=1;resizeParentMax=0;resizeLast=0;collapsible=1;marginBottom=0;" vertex="1" parent="H7DWUn0vDwxtsgN2xfW3-1">
                    <mxGeometry x="20" y="80" width="110" height="150" as="geometry"/>
                </mxCell>
                <mxCell id="7Ev8QGWdEeKFgQ5SGrht-1" value="+ cmt_id: int" style="text;strokeColor=none;fillColor=none;align=left;verticalAlign=middle;spacingLeft=4;spacingRight=4;overflow=hidden;points=[[0,0.5],[1,0.5]];portConstraint=eastwest;rotatable=0;fontStyle=5" vertex="1" parent="7Ev8QGWdEeKFgQ5SGrht-0">
                    <mxGeometry y="30" width="110" height="30" as="geometry"/>
                </mxCell>
                <mxCell id="7Ev8QGWdEeKFgQ5SGrht-2" value="+ text: string" style="text;strokeColor=none;fillColor=none;align=left;verticalAlign=middle;spacingLeft=4;spacingRight=4;overflow=hidden;points=[[0,0.5],[1,0.5]];portConstraint=eastwest;rotatable=0;" vertex="1" parent="7Ev8QGWdEeKFgQ5SGrht-0">
                    <mxGeometry y="60" width="110" height="30" as="geometry"/>
                </mxCell>
                <mxCell id="7Ev8QGWdEeKFgQ5SGrht-5" value="+ date: DateTime" style="text;strokeColor=none;fillColor=none;align=left;verticalAlign=middle;spacingLeft=4;spacingRight=4;overflow=hidden;points=[[0,0.5],[1,0.5]];portConstraint=eastwest;rotatable=0;" vertex="1" parent="7Ev8QGWdEeKFgQ5SGrht-0">
                    <mxGeometry y="90" width="110" height="30" as="geometry"/>
                </mxCell>
                <mxCell id="7Ev8QGWdEeKFgQ5SGrht-6" value="+ fk_user_id" style="text;strokeColor=none;fillColor=none;align=left;verticalAlign=middle;spacingLeft=4;spacingRight=4;overflow=hidden;points=[[0,0.5],[1,0.5]];portConstraint=eastwest;rotatable=0;fontStyle=2" vertex="1" parent="7Ev8QGWdEeKFgQ5SGrht-0">
                    <mxGeometry y="120" width="110" height="30" as="geometry"/>
                </mxCell>
                <mxCell id="7Ev8QGWdEeKFgQ5SGrht-4" value="" style="edgeStyle=orthogonalEdgeStyle;html=1;startArrow=ERmany;startFill=0;endArrow=ERone;endFill=0;exitX=1;exitY=0.5;exitDx=0;exitDy=0;entryX=0;entryY=0.5;entryDx=0;entryDy=0;" edge="1" parent="H7DWUn0vDwxtsgN2xfW3-1" source="7Ev8QGWdEeKFgQ5SGrht-6" target="D67o8UtpvSMQAMpsR08U-20">
                    <mxGeometry relative="1" as="geometry"/>
                </mxCell>
            </root>
        </mxGraphModel>
    </diagram>
</mxfile>